<mxfile host="app.diagrams.net" agent="Mozilla/5.0 (Windows NT 10.0; Win64; x64) AppleWebKit/537.36 (KHTML, like Gecko) Chrome/131.0.0.0 Safari/537.36 Edg/131.0.0.0" version="26.1.3">
  <diagram id="C5RBs43oDa-KdzZeNtuy" name="Page-1">
    <mxGraphModel dx="489" dy="839" grid="1" gridSize="10" guides="1" tooltips="1" connect="1" arrows="1" fold="1" page="1" pageScale="1" pageWidth="827" pageHeight="1169" math="0" shadow="0">
      <root>
        <mxCell id="WIyWlLk6GJQsqaUBKTNV-0" />
        <mxCell id="WIyWlLk6GJQsqaUBKTNV-1" parent="WIyWlLk6GJQsqaUBKTNV-0" />
        <mxCell id="n7J7wYE0ZKbSztlREpqA-7" value="" style="edgeStyle=orthogonalEdgeStyle;rounded=0;orthogonalLoop=1;jettySize=auto;html=1;" edge="1" parent="WIyWlLk6GJQsqaUBKTNV-1" source="n7J7wYE0ZKbSztlREpqA-0" target="n7J7wYE0ZKbSztlREpqA-1">
          <mxGeometry relative="1" as="geometry" />
        </mxCell>
        <mxCell id="n7J7wYE0ZKbSztlREpqA-0" value="开始" style="strokeWidth=2;html=1;shape=mxgraph.flowchart.terminator;whiteSpace=wrap;fontSize=16;" vertex="1" parent="WIyWlLk6GJQsqaUBKTNV-1">
          <mxGeometry x="364" y="50" width="100" height="60" as="geometry" />
        </mxCell>
        <mxCell id="n7J7wYE0ZKbSztlREpqA-8" value="" style="edgeStyle=orthogonalEdgeStyle;rounded=0;orthogonalLoop=1;jettySize=auto;html=1;" edge="1" parent="WIyWlLk6GJQsqaUBKTNV-1" source="n7J7wYE0ZKbSztlREpqA-1" target="n7J7wYE0ZKbSztlREpqA-2">
          <mxGeometry relative="1" as="geometry" />
        </mxCell>
        <mxCell id="n7J7wYE0ZKbSztlREpqA-1" value="进入帖子页面" style="rounded=0;whiteSpace=wrap;html=1;fontSize=16;" vertex="1" parent="WIyWlLk6GJQsqaUBKTNV-1">
          <mxGeometry x="354" y="150" width="120" height="60" as="geometry" />
        </mxCell>
        <mxCell id="n7J7wYE0ZKbSztlREpqA-9" value="" style="edgeStyle=orthogonalEdgeStyle;rounded=0;orthogonalLoop=1;jettySize=auto;html=1;" edge="1" parent="WIyWlLk6GJQsqaUBKTNV-1" source="n7J7wYE0ZKbSztlREpqA-2" target="n7J7wYE0ZKbSztlREpqA-3">
          <mxGeometry relative="1" as="geometry" />
        </mxCell>
        <mxCell id="n7J7wYE0ZKbSztlREpqA-2" value="点击创建按钮" style="rounded=0;whiteSpace=wrap;html=1;fontSize=16;" vertex="1" parent="WIyWlLk6GJQsqaUBKTNV-1">
          <mxGeometry x="354" y="250" width="120" height="60" as="geometry" />
        </mxCell>
        <mxCell id="n7J7wYE0ZKbSztlREpqA-10" value="" style="edgeStyle=orthogonalEdgeStyle;rounded=0;orthogonalLoop=1;jettySize=auto;html=1;" edge="1" parent="WIyWlLk6GJQsqaUBKTNV-1" source="n7J7wYE0ZKbSztlREpqA-3" target="n7J7wYE0ZKbSztlREpqA-4">
          <mxGeometry relative="1" as="geometry" />
        </mxCell>
        <mxCell id="n7J7wYE0ZKbSztlREpqA-3" value="填写相关信息" style="rounded=0;whiteSpace=wrap;html=1;fontSize=16;" vertex="1" parent="WIyWlLk6GJQsqaUBKTNV-1">
          <mxGeometry x="354" y="350" width="120" height="60" as="geometry" />
        </mxCell>
        <mxCell id="n7J7wYE0ZKbSztlREpqA-11" value="" style="edgeStyle=orthogonalEdgeStyle;rounded=0;orthogonalLoop=1;jettySize=auto;html=1;" edge="1" parent="WIyWlLk6GJQsqaUBKTNV-1" source="n7J7wYE0ZKbSztlREpqA-4" target="n7J7wYE0ZKbSztlREpqA-5">
          <mxGeometry relative="1" as="geometry" />
        </mxCell>
        <mxCell id="n7J7wYE0ZKbSztlREpqA-14" value="是" style="edgeLabel;html=1;align=center;verticalAlign=middle;resizable=0;points=[];fontSize=16;" vertex="1" connectable="0" parent="n7J7wYE0ZKbSztlREpqA-11">
          <mxGeometry x="-0.688" y="-2" relative="1" as="geometry">
            <mxPoint as="offset" />
          </mxGeometry>
        </mxCell>
        <mxCell id="n7J7wYE0ZKbSztlREpqA-13" style="edgeStyle=orthogonalEdgeStyle;rounded=0;orthogonalLoop=1;jettySize=auto;html=1;exitX=1;exitY=0.5;exitDx=0;exitDy=0;entryX=1;entryY=0.5;entryDx=0;entryDy=0;" edge="1" parent="WIyWlLk6GJQsqaUBKTNV-1" source="n7J7wYE0ZKbSztlREpqA-4" target="n7J7wYE0ZKbSztlREpqA-3">
          <mxGeometry relative="1" as="geometry">
            <Array as="points">
              <mxPoint x="560" y="490" />
              <mxPoint x="560" y="380" />
            </Array>
          </mxGeometry>
        </mxCell>
        <mxCell id="n7J7wYE0ZKbSztlREpqA-15" value="否" style="edgeLabel;html=1;align=center;verticalAlign=middle;resizable=0;points=[];fontSize=16;" vertex="1" connectable="0" parent="n7J7wYE0ZKbSztlREpqA-13">
          <mxGeometry x="0.074" y="2" relative="1" as="geometry">
            <mxPoint as="offset" />
          </mxGeometry>
        </mxCell>
        <mxCell id="n7J7wYE0ZKbSztlREpqA-4" value="是否发布" style="rhombus;whiteSpace=wrap;html=1;fontSize=16;" vertex="1" parent="WIyWlLk6GJQsqaUBKTNV-1">
          <mxGeometry x="361" y="440" width="106" height="100" as="geometry" />
        </mxCell>
        <mxCell id="n7J7wYE0ZKbSztlREpqA-12" value="" style="edgeStyle=orthogonalEdgeStyle;rounded=0;orthogonalLoop=1;jettySize=auto;html=1;" edge="1" parent="WIyWlLk6GJQsqaUBKTNV-1" source="n7J7wYE0ZKbSztlREpqA-5" target="n7J7wYE0ZKbSztlREpqA-6">
          <mxGeometry relative="1" as="geometry" />
        </mxCell>
        <mxCell id="n7J7wYE0ZKbSztlREpqA-5" value="发布成功" style="rounded=0;whiteSpace=wrap;html=1;fontSize=16;" vertex="1" parent="WIyWlLk6GJQsqaUBKTNV-1">
          <mxGeometry x="354" y="570" width="120" height="60" as="geometry" />
        </mxCell>
        <mxCell id="n7J7wYE0ZKbSztlREpqA-6" value="结束" style="strokeWidth=2;html=1;shape=mxgraph.flowchart.terminator;whiteSpace=wrap;fontSize=16;" vertex="1" parent="WIyWlLk6GJQsqaUBKTNV-1">
          <mxGeometry x="364" y="670" width="100" height="60" as="geometry" />
        </mxCell>
      </root>
    </mxGraphModel>
  </diagram>
</mxfile>
